<svg width="40" height="40" viewBox="0 0 40 40" fill="none" xmlns="http://www.w3.org/2000/svg">
<path d="M18.9565 5.15233C19.3279 2.24093 19.5136 0.785233 19.9582 0.785233C20.4028 0.785233 20.5885 2.24093 20.9599 5.15233L22.4559 16.879C22.5034 17.2514 22.5271 17.4376 22.6491 17.5596C22.7711 17.6816 22.9573 17.7054 23.3298 17.7529L35.0564 19.2489C37.9678 19.6203 39.4235 19.806 39.4235 20.2506C39.4235 20.6951 37.9678 20.8809 35.0564 21.2523L23.3298 22.7482C22.9573 22.7957 22.7711 22.8195 22.6491 22.9415C22.5271 23.0635 22.5034 23.2497 22.4559 23.6221L20.9599 35.3488C20.5885 38.2602 20.4028 39.7159 19.9582 39.7159C19.5136 39.7159 19.3279 38.2602 18.9565 35.3488L17.4605 23.6221C17.413 23.2497 17.3893 23.0635 17.2673 22.9415C17.1453 22.8195 16.9591 22.7957 16.5866 22.7482L4.85997 21.2523C1.94857 20.8809 0.492875 20.6951 0.492875 20.2506C0.492875 19.806 1.94857 19.6203 4.85997 19.2489L16.5866 17.7529C16.9591 17.7054 17.1453 17.6816 17.2673 17.5596C17.3893 17.4376 17.413 17.2514 17.4605 16.879L18.9565 5.15233Z" fill="#D9B4FF"/>
</svg>
